<svg xmlns="http://www.w3.org/2000/svg" xml:space="preserve" width="2000" height="1500" data-id="lg_Tt1Bi97JVrrbvvCSuY" data-version="1" viewBox="0 0 2000 1500"><path fill="#1a1a1a" stroke="transparent" d="M0 0h2000v1500H0z"/><g data-padding="20"><g transform="translate(-1645.487 -1234.067)scale(2.57677)"><rect width="560" height="150.29" x="346.167" y="295.046" fill="none" rx="0" ry="0" transform="translate(400.5 499.78)"/><path fill="#ccc" d="M779.087 911.751h-21.04v-114.3h21.5q8.96 0 13.96 3.74 5 3.73 7.01 10.68 2.02 6.95 2.02 16.63l.06 50.2q0 11.56-2.3 18.86-2.31 7.31-7.47 10.75-5.17 3.44-13.74 3.44m-7.66-103.65v92.81h6.88q3.64 0 6.04-1.6 2.41-1.59 3.61-5.94t1.2-12.6v-52.6q0-10.78-2.53-15.42-2.54-4.65-8.32-4.65Zm63.25 104.5q-8.83 0-12.73-6.86-3.89-6.85-3.96-18.99v-9.48q0-6.43 2.21-10.69 2.21-4.25 6.23-7.11 4.03-2.85 9.49-5.16 5.45-2.31 11.95-4.9v-7.54q0-6.23-.39-10.09-.39-3.87-1.98-5.69-1.6-1.82-5.1-1.82-3.44 0-5.17 1.82-1.72 1.82-2.24 5.72-.52 3.89-.52 10.13v3.38h-13.24v-2.8q0-6.23.78-11.59.77-5.36 2.98-9.32t6.46-6.2q4.26-2.24 11.21-2.24 6.62 0 10.68 2.11t6.23 6.2q2.18 4.09 2.96 10.1t.78 13.87v66.3h-13.38v-8.44q-.58 1.95-2.27 4.12-1.69 2.18-4.42 3.67-2.73 1.5-6.56 1.5m3.77-10.78q3.51 0 6.04-2.25 2.53-2.24 3.38-4.44v-37.09q-5 2.21-8.22 4-3.21 1.78-5 3.73t-2.5 4.68-.71 6.88v9.03q0 8.25 1.42 11.85 1.43 3.61 5.59 3.61m66.43 10.52h-9.15q-6.24 0-9.42-1.5-3.18-1.49-4.29-4.8-1.1-3.32-1.1-8.77v-72.28h-8.9v-9.87h8.9v-17.67h13.31v17.67h10.52v9.87h-10.52v71.11q0 2.47.65 3.67t2.93 1.59q2.27.39 7.07.39Zm27.08.26q-8.83 0-12.72-6.86-3.9-6.85-3.97-18.99v-9.48q0-6.43 2.21-10.69 2.21-4.25 6.24-7.11 4.02-2.85 9.48-5.16 5.45-2.31 11.95-4.9v-7.54q0-6.23-.39-10.09-.39-3.87-1.98-5.69t-5.1-1.82q-3.44 0-5.16 1.82t-2.24 5.72q-.52 3.89-.52 10.13v3.38h-13.25v-2.8q0-6.23.78-11.59t2.99-9.32q2.2-3.96 6.46-6.2 4.25-2.24 11.2-2.24 6.62 0 10.68 2.11t6.24 6.2q2.17 4.09 2.95 10.1t.78 13.87v66.3h-13.38v-8.44q-.58 1.95-2.27 4.12-1.69 2.18-4.42 3.67-2.72 1.5-6.56 1.5m3.77-10.78q3.51 0 6.04-2.25 2.53-2.24 3.38-4.44v-37.09q-5 2.21-8.22 4-3.21 1.78-5 3.73-1.78 1.95-2.5 4.68-.71 2.73-.71 6.88v9.03q0 8.25 1.43 11.85 1.42 3.61 5.58 3.61m60.59 11.09q-7.08 0-11.4-2.4-4.31-2.41-6.55-6.92-2.25-4.51-3.02-10.78-.78-6.27-.78-13.93v-32.6q0-9.74 1.62-17.21t6.36-11.69 14.1-4.22q6.49 0 10.48 2.14 4 2.15 6.11 6.17 2.11 4.03 2.86 9.61.74 5.59.74 12.41v6.75h-13.12v-8.57q0-5.59-.35-9.38-.36-3.8-1.85-5.75-1.5-1.95-5-1.95-3.71 0-5.52 2.11-1.82 2.11-2.44 6.04t-.62 9.32v41.43q0 6.04.52 10.03.52 4 2.28 5.98 1.75 1.98 5.39 1.98 3.5 0 5.09-2.11 1.6-2.11 2.05-6.1.45-4 .45-9.52v-9.42h13.12v6.3q0 7.21-.71 13.12-.72 5.91-2.83 10.2-2.11 4.28-6.2 6.62t-10.78 2.34m56.7 0q-7.02 0-11.27-2.44-4.26-2.43-6.46-6.91-2.21-4.48-2.96-10.75t-.75-13.86v-34.42q0-6.89.98-12.63.97-5.75 3.38-9.94 2.4-4.19 6.68-6.49 4.29-2.31 10.91-2.31 6.69 0 10.79 2.34 4.09 2.34 6.2 6.59t2.82 10.13q.72 5.88.72 12.89v18.38h-29.1v19.42q0 9.22 1.27 14.06t6.92 4.84q3.7 0 5.29-2.31t1.95-6.49q.35-4.19.35-9.91v-7.86h13.06v4.16q0 7.6-.62 13.77t-2.63 10.58q-2.01 4.42-6.2 6.79t-11.33 2.37m-8.12-70.4v11.95h15.84v-12.4q0-5.85-.39-9.84t-1.88-6.04q-1.49-2.04-4.94-2.04-3.83 0-5.68 2.33-1.85 2.34-2.4 6.46-.55 4.13-.55 9.58m58.46 69.24h-13.32v-97.41h13.32v10.32q1.29-4.54 5.55-8.05 4.25-3.5 10.16-3.5 7.34 0 11.43 5.19 4.09 5.2 4.09 15.78v77.67h-13.31v-77.6q0-5.2-2.34-7.54t-5.97-2.34q-2.67 0-4.87 1.17-2.21 1.17-3.48 3.64-1.26 2.47-1.26 6.36Zm75.9.59h-9.16q-6.23 0-9.41-1.5-3.18-1.49-4.29-4.8-1.1-3.32-1.1-8.77v-72.28h-8.9v-9.87h8.9v-17.67h13.31v17.67h10.52v9.87h-10.52v71.11q0 2.47.65 3.67t2.92 1.59q2.28.39 7.08.39Zm25.98-.59h-13.38v-97.41h13.38v10.84q1.69-5.65 5.88-8.83 4.18-3.18 10.68-3.18.13 0 .16 1.72t.03 3.93v5.65q-3.11 0-6.23.75-3.12.74-5.85 2.53-2.72 1.79-4.67 4.84Zm41.82 0h-13.38v-97.41h13.38Zm0-106.37h-13.38v-12.21h13.38Zm23.7 106.37h-12.08l16.37-50.2-15.26-47.21h11.75l10.26 31.11 9.1-31.11h12.07l-15.71 47.67 16.36 49.74h-12.4l-10.65-33.12Z"/><rect width="357.954" height="30.51" x="447.19" y="354.936" fill="none" rx="0" ry="0" transform="translate(400.5 594.84)"/><path fill="#ccc" d="M857.387 973.511h-2.7v-19.78h2.7v2.1q.27-.93 1.13-1.64t2.06-.71q1.49 0 2.32 1.05.83 1.06.83 3.21v15.77h-2.7v-15.76q0-1.05-.47-1.53-.48-.47-1.22-.47-.54 0-.99.23-.44.24-.7.74t-.26 1.29Zm22.81.24q-1.39 0-2.27-.48-.87-.48-1.33-1.37-.47-.89-.64-2.14-.17-1.24-.17-2.78v-7q0-1.86.35-3.33.36-1.46 1.31-2.3.96-.85 2.75-.85 1.35 0 2.2.48.86.49 1.34 1.36.47.88.65 2.06t.18 2.58v7q0 1.51-.16 2.75t-.61 2.14q-.46.91-1.32 1.4-.87.48-2.28.48m0-2.25q.71 0 1.06-.48.35-.47.47-1.32t.12-1.97v-8.29q0-1.11-.12-1.94-.12-.82-.47-1.28-.36-.46-1.06-.46-.74 0-1.1.46-.37.46-.49 1.28-.11.83-.11 1.94v8.29q0 1.12.11 1.97.12.85.49 1.32.36.48 1.1.48m21.83 2.13h-1.85q-1.27 0-1.92-.3-.64-.3-.87-.97-.22-.68-.22-1.78v-14.68h-1.81v-2h1.81v-3.59h2.7v3.59h2.14v2h-2.14v14.44q0 .5.13.74.14.25.6.33t1.43.08Zm13.88-.11h-2.72v-19.78h2.72Zm0-21.6h-2.72v-2.48h2.72Zm15.92 21.59h-2.71v-17.02h-1.7v-2h1.7v-.96q0-1.71.74-2.64.73-.93 2.32-.93.78 0 1.35.12.56.13.62.16v1.88q-.53-.08-.94-.08-.88 0-1.13.37t-.25 1.02v1.06h2.32v2h-2.32Zm16.48.01h-2.72v-19.78h2.72Zm0-21.6h-2.72v-2.48h2.72Zm16.6 21.83q-1.44 0-2.31-.48-.88-.49-1.33-1.41-.46-.92-.62-2.19t-.16-2.83v-6.61q0-1.98.33-3.5.33-1.51 1.3-2.37.96-.86 2.86-.86 1.32 0 2.13.44.81.43 1.24 1.25.42.82.58 1.95.15 1.14.15 2.52v1.37h-2.67v-1.74q0-1.13-.07-1.9-.07-.78-.37-1.17-.31-.4-1.02-.4-.75 0-1.12.43t-.49 1.23q-.13.8-.13 1.89v8.41q0 1.23.11 2.04.1.81.46 1.21.35.4 1.09.4.71 0 1.04-.43.32-.42.41-1.24.09-.81.09-1.93v-1.91h2.67v1.28q0 1.46-.15 2.66-.14 1.2-.57 2.07t-1.26 1.35q-.83.47-2.19.47m18.99-.06q-1.79 0-2.58-1.39-.8-1.39-.81-3.86v-1.92q0-1.31.45-2.17.45-.87 1.26-1.45.82-.58 1.93-1.05 1.11-.46 2.43-.99v-1.53q0-1.27-.08-2.05t-.41-1.15q-.32-.37-1.03-.37-.7 0-1.05.37t-.45 1.16q-.11.79-.11 2.05v.69h-2.69v-.57q0-1.26.16-2.35t.61-1.89q.44-.81 1.31-1.26.86-.46 2.27-.46 1.35 0 2.17.43t1.27 1.26q.44.83.6 2.05.15 1.22.15 2.82v13.46h-2.71v-1.72q-.12.4-.46.84-.35.44-.9.74-.55.31-1.33.31m.76-2.19q.72 0 1.23-.46.51-.45.69-.9v-7.53q-1.02.45-1.67.81-.65.37-1.02.76-.36.4-.51.95-.14.55-.14 1.4v1.83q0 1.68.29 2.41t1.13.73m22.08 2.13h-1.86q-1.27 0-1.91-.3-.65-.3-.87-.97-.23-.68-.23-1.78v-14.68h-1.8v-2h1.8v-3.59h2.7v3.59h2.14v2h-2.14v14.44q0 .5.14.74.13.25.59.33t1.44.08Zm13.88-.11h-2.71v-19.78h2.71Zm0-21.6h-2.71v-2.48h2.71Zm16.6 21.83q-1.39 0-2.26-.48t-1.34-1.37-.64-2.14q-.17-1.24-.17-2.78v-7q0-1.86.35-3.33.36-1.46 1.32-2.3.95-.85 2.74-.85 1.35 0 2.21.48.85.49 1.33 1.36.47.88.65 2.06t.18 2.58v7q0 1.51-.16 2.75t-.61 2.14q-.46.91-1.32 1.4-.87.48-2.28.48m0-2.25q.72 0 1.07-.48.34-.47.46-1.32t.12-1.97v-8.29q0-1.11-.12-1.94-.12-.82-.47-1.28-.36-.46-1.06-.46-.73 0-1.1.46t-.48 1.28q-.12.83-.12 1.94v8.29q0 1.12.12 1.97.11.85.48 1.32.37.48 1.1.48m19.19 2.01h-2.71v-19.78h2.71v2.1q.26-.93 1.12-1.64.87-.71 2.07-.71 1.49 0 2.32 1.05.83 1.06.83 3.21v15.77h-2.7v-15.76q0-1.05-.48-1.53-.47-.47-1.21-.47-.54 0-.99.23-.45.24-.71.74-.25.5-.25 1.29Zm37.46.27q-2.11 0-3.2-1.33-1.1-1.32-1.1-4.39v-1.49h2.63v1.47q0 1.67.36 2.55t1.19.88 1.22-.54.39-1.94q0-.7-.21-1.39t-.65-1.37q-.43-.68-1.12-1.32l-1.39-1.33q-1.26-1.2-1.92-2.56-.65-1.35-.65-2.86 0-2.4 1.13-3.53t3.12-1.13q1.33 0 2.24.58t1.38 1.93q.46 1.34.46 3.66v.95h-2.57v-1.37q0-1.66-.33-2.54-.32-.89-1.15-.89-.8 0-1.21.47-.4.47-.44 1.71-.01.63.17 1.28.17.64.58 1.28.41.63 1.06 1.24l1.42 1.33q1.39 1.28 2.09 2.75.71 1.47.71 3.1 0 2.24-1.02 3.52-1.03 1.28-3.19 1.28m17.59 3.04h-2.65v-2.04h.94q.58 0 1.01-.06.42-.06.52-.26.16-.21.12-.66-.03-.46-.11-.98l-3.23-19.08h2.62l1.43 10.28.58 5.36h.23l.52-5.36 1.29-10.28h2.61l-3.28 20.16q-.16 1.07-.4 1.71-.23.65-.73.93-.49.28-1.47.28m20.55-3.04q-2.11 0-3.21-1.33-1.09-1.32-1.09-4.39v-1.49h2.62v1.47q0 1.67.36 2.55.37.88 1.2.88t1.22-.54q.38-.54.38-1.94 0-.7-.21-1.39t-.64-1.37q-.44-.68-1.12-1.32l-1.4-1.33q-1.25-1.2-1.91-2.56-.66-1.35-.66-2.86 0-2.4 1.13-3.53 1.14-1.13 3.13-1.13 1.33 0 2.24.58t1.37 1.93q.46 1.34.46 3.66v.95h-2.57v-1.37q0-1.66-.32-2.54-.33-.89-1.16-.89-.8 0-1.2.47t-.44 1.71q-.02.63.16 1.28.18.64.59 1.28.41.63 1.05 1.24l1.43 1.33q1.38 1.28 2.09 2.75.7 1.47.7 3.1 0 2.24-1.02 3.52t-3.18 1.28m20.8-.15h-1.86q-1.26 0-1.91-.3-.64-.3-.87-.97-.22-.68-.22-1.78v-14.68h-1.81v-2h1.81v-3.59h2.7v3.59h2.14v2h-2.14v14.44q0 .5.13.74.13.25.6.33.46.08 1.43.08Zm15.19.12q-1.42 0-2.28-.49-.87-.5-1.32-1.41-.44-.91-.6-2.18-.15-1.27-.15-2.81v-6.99q0-1.4.2-2.56.2-1.17.69-2.02.48-.85 1.35-1.32t2.22-.47q1.36 0 2.19.48.83.47 1.26 1.34.42.86.57 2.05.14 1.2.14 2.62v3.73h-5.9v3.94q0 1.87.26 2.86.25.98 1.4.98.75 0 1.07-.47.33-.47.4-1.32t.07-2.01v-1.59h2.65v.84q0 1.54-.12 2.8-.13 1.25-.54 2.14-.41.9-1.26 1.38t-2.3.48m-1.64-14.29v2.43h3.21v-2.52q0-1.19-.08-2t-.38-1.22q-.3-.42-1-.42-.78 0-1.15.48-.38.47-.49 1.31-.11.83-.11 1.94m20.45 14.05h-2.71v-19.78h2.71v2.06q.26-.94 1.06-1.62.8-.69 2.02-.69.98 0 1.7.47.73.48 1.1 1.53.48-.89 1.34-1.45.86-.55 2.01-.55 1.56 0 2.38 1.11.82 1.12.82 3.31v15.61h-2.7v-15.69q0-1.12-.44-1.57-.43-.44-1.15-.44-1.01 0-1.47.46-.45.45-.45 1.63v15.61h-2.72v-15.71q0-1.05-.41-1.52-.4-.47-1.14-.47-.96 0-1.46.62-.49.62-.49 1.68ZM1006.54 598.608c-21.093.043-38.176 17.143-38.197 38.236 0 21.078 17.144 38.222 38.223 38.222s38.223-17.157 38.223-38.222c-.022-21.103-17.12-38.207-38.223-38.236m0 54.632c-8.88-.243-15.955-7.507-15.963-16.39-.006-8.884 7.057-16.16 15.937-16.415 9.056 0 16.422 7.353 16.422 16.41 0 9.03-7.366 16.395-16.41 16.395"/><path fill="#ccc" d="M1006.553 628.498a8.346 8.346 0 1 0 0 16.692 8.346 8.346 0 1 0 0-16.692m37.114-27.735a9.03 9.03 0 0 0-14.978 3.186 40 40 0 0 1 11.365 11.713 9.03 9.03 0 0 0 5.857-6.192 9.03 9.03 0 0 0-2.245-8.707"/><path fill="#ccc" d="M1083.01 559.676h-61.171c-17.266.036-31.254 14.03-31.282 31.295v9.61a39.47 39.47 0 0 1 23.4-2.682l-1.548-1.342a.516.516 0 0 1-.116-.658 40 40 0 0 1 8.385-10.513.516.516 0 0 1 .684-.039l4.709 3.431q1.754-1.057 3.637-1.754l.258-5.818c0-.258.194-.464.439-.503a39.3 39.3 0 0 1 13.455 0 .524.524 0 0 1 .438.503l.258 5.818q1.897.71 3.638 1.754l4.72-3.43a.516.516 0 0 1 .659.038 40 40 0 0 1 8.385 10.513.516.516 0 0 1-.103.645l-4.386 3.857q.62 1.922.89 3.922l5.625 1.548a.516.516 0 0 1 .387.542 40 40 0 0 1-3.006 13.12.516.516 0 0 1-.593.322l-5.74-1.032q-1.097 1.676-2.504 3.134l2.284 5.367a.53.53 0 0 1-.18.645 40 40 0 0 1-8.682 4.644q.232 2.09.232 4.23c-.04 19.014-13.543 35.334-32.212 38.933h69.04c.388 0 .698-.31.698-.71v-114.68c0-.387-.31-.71-.697-.71"/></g><path fill="transparent" stroke="transparent" stroke-width="2.672" d="M251.781 187.5H1748.22v1125H251.78z"/></g></svg>